<svg version="1" xmlns="http://www.w3.org/2000/svg" width="1333.333" height="1333.333" viewBox="0 0 1000.000000 1000.000000"><path d="M475.9 42.4c-.2.2-4.4.7-9.4 1-4.9.3-10.6.8-12.5 1.1-1.9.2-6.2.6-9.5 1-3.3.3-6.7.7-7.5 1-.8.2-3.7.6-6.5 1-30.5 3.7-81.3 18.6-116 34-3.3 1.4-6 2.6-6 2.5 0-.7-33.1 17.1-42.5 22.9l-12.5 7.6-67.5.5c-65.5.5-67.6.6-70.2 2.5-5.7 4.2-6.5 11.8-2.1 18.7 1.5 2.4 3.3 5.2 3.9 6.3.6 1.1 9 14.6 18.7 30l17.5 28-1.8 2.5c-1.1 1.4-3.4 4.2-5.2 6.3-7.6 8.6-18.8 23.8-29.3 39.7-30.6 46.3-52.1 97-64.5 152.1-1.2 5.2-2.3 10.5-2.5 11.9-.2 1.4-.9 5-1.5 8-1.4 7.2-3 18.3-3.6 24.5-.3 2.7-.6 6.1-.9 7.3-2.7 15.1-2.7 73.7 0 96.2 2 16.7 2.6 20.7 5.6 36.5 4.5 24.7 17.6 69.8 24.9 86 1 2.2 3.8 8.5 6.1 14 8.2 18.9 30.7 60.3 35.6 65.3.7.7 1.3 1.7 1.3 2.2 0 .5.6 1.5 1.3 2.2.6.7 3 4 5.2 7.3s4.2 6.2 4.5 6.5c.3.3 3.2 4.1 6.4 8.4 3.2 4.3 6.7 8.8 7.7 10 .9 1.2 3.4 4.1 5.4 6.6 5.3 6.4 15.2 17.5 20.9 23.3l4.9 4.9-1.7 3.2c-.9 1.7-2.4 4.4-3.4 6.1-8.8 14.9-10.8 18-11.4 18.3-.5.2-.8.8-.8 1.3s-2 4.2-4.4 8.2c-2.4 3.9-4.6 8.5-5 10.1-1 4.1 1.1 9.2 4.7 11.8l3.2 2.3 46.8.2 46.8.2 5.2 3.3c2.9 1.8 5.7 3.5 6.2 3.8.6.3 5.3 3 10.5 6.1 17.7 10.5 45 23.8 59.7 29.3 21.9 8.1 29.8 10.9 35.8 12.5 3.9 1.1 11.1 3.1 16 4.5 7.4 2.1 18.5 4.6 36 8.2 2.9.6 20.2 3.2 25.5 3.9 2.5.3 6.1.7 8 1 21.1 2.6 79.4 2.7 97 0 6.7-1 10.9-1.5 15-2 2.5-.3 7-1 10-1.5s6.9-1.2 8.7-1.5c38.6-6.4 94.3-25.4 127.3-43.3 3.6-1.9 9-4.8 12-6.5 8.9-4.8 14-7.8 22-12.9l7.5-4.8h63.2c55.4 0 63.8-.2 67.2-1.6 5-2 7.3-5.4 7.3-10.8 0-3.6-1.4-6.4-9.6-19.5-5.3-8.4-9.6-15.4-9.6-15.6 0-.2-2.2-3.8-5-7.9-2.7-4.2-5-7.8-5-8.1 0-.4-1-2.1-2.3-3.8-1.2-1.8-2.7-4.1-3.4-5.2-.7-1.1-2.4-4-3.9-6.4-3.2-5.2-3.4-4.5 6.5-16.7 15.4-19.1 25.1-32.9 37.3-53.4 9.1-15.2 25.6-47.1 26.4-51 0-.3.8-2.2 1.7-4.2 3.4-7.6 4.9-11.4 7.3-18.3 1.4-3.9 2.9-7.9 3.4-9 4.1-9.5 15.1-49.9 17.5-64.5.3-1.9.8-4.6 1-6 1-5 1.4-6.9 2.1-11.7.3-2.6.8-5.6 1-6.7.2-1 .6-4.4.9-7.5.4-3.1.8-6.6 1-7.9 1.3-8.1 2-24.1 2-46.7s-1-46.8-2-48.5c-.1-.3-.6-3.8-.9-7.9-.4-4.1-.9-7.7-1-8-.2-.3-.6-2.9-1-5.6-.7-5.9-.9-7.2-4.2-23.3-5.9-29.5-16.3-62.3-28.6-90.7-2.9-6.6-14.8-31.3-16.8-34.5-.4-.8-4.1-7.1-8.1-14-8.6-14.7-16.6-26.9-26.3-40-8-10.7-7.9-10.6-10.7-14-1.2-1.4-3.3-4.1-4.8-6-1.4-1.9-2.8-3.7-3.2-4-.3-.3-4.1-4.5-8.5-9.5-4.3-4.9-9.8-10.9-12.1-13.2-4.3-4.2-5.1-6.1-3.4-7.9.5-.5 1.8-2.5 2.9-4.4 2.5-4.4 11-19 12.2-21 6.3-10.2 9.9-17.1 10.5-20 .8-4.6-2-9.7-6.6-12.2-3.1-1.7-6.4-1.8-47.4-1.5-24.2.1-44.7.5-45.5 1-1 .5-5.2-1.6-12.5-6.1-37.9-23.6-81.8-42.3-126.4-53.8-7.3-1.9-14.3-3.6-15.5-3.8-1.1-.2-6.9-1.3-12.8-2.5-5.9-1.1-12.6-2.3-14.9-2.6-2.2-.3-5.3-.7-6.8-.9-4.4-.8-10.3-1.5-17.6-2.2-3.8-.3-7.9-.8-9-1.1-2.3-.5-61.1-1.4-61.6-.9zm56.6 49c2.2.2 7.2.7 11 1 3.9.4 9.5 1.1 12.5 1.6s7.8 1.2 10.5 1.5c2.8.3 11.3 1.9 19 3.5 41.4 8.6 85.9 26 122.7 47.8 4.3 2.6 8.6 5.2 9.6 5.7 4.6 2.7 7.2 4.8 7.2 5.9 0 .6-1.6 3.5-3.5 6.3-1.9 2.9-3.5 5.4-3.5 5.7 0 .4-10.7 18.5-11.6 19.4-.1.2-5.8-3-12.6-7.1-43.5-26.3-82.5-40.7-136.3-50.3-3.4-.6-19.6-2.5-27-3.2-3.8-.3-17.3-.6-30-.7-20.6 0-30 .4-43 2-2.2.3-6 .7-8.5 1-2.5.3-8.3 1.3-12.9 2.1l-8.4 1.6-2.3-2.9c-1.2-1.5-2.9-3.9-3.6-5.3-2.9-5.7-7-10-10.6-11-2-.5-14.3-1-27.2-1.1h-23.5l5.5-2c15.8-5.8 46.4-13.8 62-16.3 1.9-.3 4.6-.8 6-1 4.6-.9 10.4-1.6 22.5-3.1 2.2-.2 8.7-.8 14.5-1.1 5.8-.4 10.6-.8 10.8-.9.5-.4 46.6.4 50.7.9zm-4 79c3.3.4 8 .9 10.5 1.2 2.5.3 5.9.8 7.5 1 9.6 1.1 18.5 2.9 39.8 7.9 8.5 2 33.4 10.8 45.2 16 16 7 36.7 18.2 47.8 25.7 5.4 3.7 5.7 4.1 4.3 5.7-.9 1-1.6 2.3-1.6 2.9 0 .7-.4 1.2-1 1.2-.5 0-1 .4-1 1 0 .5-5.1 9.3-11.2 19.5-6.2 10.3-12.4 20.5-13.8 22.9-4 6.9-12.8 21.5-17.1 28.5-2.1 3.4-3.9 6.7-3.9 7.2s-.4.9-.8.9-1.3 1.2-2 2.7c-.6 1.6-4.1 7.5-7.6 13.3-7.7 12.6-16.2 26.6-19.6 32.4-4.1 6.9-45.4 75.4-47.2 78.4-1 1.5-2.1 3.4-2.5 4.2-2.2 4.3-12.9 21.5-13.5 21.8-.5.2-.8.8-.8 1.4 0 .6-1 2.7-2.2 4.7-2.7 4.3-3.1 5.6-3 9.9.1 3.6 1.5 6.3 13.3 24.9 16.7 26.2 27.3 43.1 28.8 45.5.9 1.5 5.7 9.1 10.6 17 5 7.8 9.2 14.6 9.4 15.2.2.6.7 1.3 1 1.6.3.3 1.1 1.4 1.8 2.5.6 1.1 5.3 8.5 10.3 16.5 35.3 56 46 73.3 46 74 0 .5.3 1 .8 1.2.7.3 6.1 8.4 8.7 13 1.8 3.2 38.4 61.3 39.9 63.3 1.3 1.8 1.2 2.2-1 4.2-1.3 1.2-6.9 5.4-12.3 9.3l-9.9 7-28.2-.2-28.3-.3-1.7-3.2c-1.6-3-3.5-6.1-14.1-22.7-2.4-3.9-4.8-7.8-5.4-8.8-1.2-2.1-17.3-28-22-35.3-3.1-4.9-13-20.9-15-24.3-.6-.9-2.4-3.7-4-6.2-6.4-10-12.5-20.2-12.5-21.1 0-.5-.4-.9-.8-.9-.5 0-1.5-1.2-2.3-2.8-.8-1.5-2.6-4.6-4.1-6.8-1.6-2.3-2.8-4.6-2.8-5.2 0-.6-.4-1.2-.8-1.4-.4-.2-1.9-2.1-3.2-4.3-1.3-2.2-3.8-6.3-5.5-9-1.8-2.8-9.5-15.1-17.1-27.3-8.2-13.1-15.1-23.3-16.9-24.5-2.2-1.6-4.3-2.2-7.7-2.1-5.3.2-7.1 1.6-11.3 8.4-1.5 2.5-3.6 5.8-4.6 7.5-1.1 1.6-9.6 15.4-18.9 30.5-19.9 32.2-19.6 31.2-12.9 43 .8 1.4 1.7 2.7 2 3 .3.3 3.9 5.8 8 12.3 11.6 18.4 16.7 26.5 26.4 41.6 5 7.8 10.1 15.9 11.5 18.1 1.4 2.2 5 7.8 8 12.5 7.9 12.3 10.5 16.4 14 22 1.6 2.7 10.7 16.9 20 31.4 9.4 14.5 16.9 26.6 16.6 26.8-.7.7-10.2 2-23 3-16.7 1.4-53 .7-65-1.2-1.2-.2-7-1.1-13.1-2-22.3-3.4-54.4-12.3-72-20-12.7-5.5-17.3-7.7-26.5-12.4-5.8-3-11.5-5.9-12.7-6.5-1.3-.6-2.3-1.4-2.3-1.9 0-.4-.5-.7-1.1-.7-.8 0-16.8-9.9-18.8-11.6-.2-.2 3.3-6.5 7.8-14.1s8.6-14.5 9.1-15.3c.5-.8 3-5.1 5.6-9.5 2.6-4.4 5.5-9.5 6.6-11.3 5.5-9.7 33.3-56.8 33.8-57.2.4-.3.9-1.2 1.2-2 .7-2 14.4-25.2 15.7-26.7.6-.7 1.1-1.5 1.1-1.8 0-.4 3.3-6.1 7.2-12.8 4-6.7 7.8-13.1 8.4-14.2 2.9-5.3 39.4-67.1 40.1-68 3.2-4.2 10.3-18.7 10.3-21.3 0-2.6-1.9-7-5.2-12.4-1.3-2-4.6-7.4-7.4-12-2.8-4.5-11.7-19-19.7-32.2-8.1-13.1-14.7-24-14.7-24.2 0-.3-.5-1-1.1-1.7-.5-.7-8-12.7-16.6-26.7-8.6-14-19.2-31.4-23.7-38.7-28.6-46.6-34.1-55.8-34.5-56.7-.2-.6-.7-1.3-1.1-1.6-.4-.3-3.2-4.8-6.4-10-3.1-5.2-8.8-14.6-12.7-20.9-3.8-6.2-6.9-11.7-6.9-12.1 0-.5-.4-1-.8-1.2-1-.4-16.2-25.3-16.2-26.6 0-.9 12.5-10.6 21.5-16.6l4-2.6H369l7.2 11.2c4 6.2 10.5 16 14.3 22 3.9 5.9 9.7 14.9 12.9 20 3.3 5.1 8.3 12.9 11.1 17.3 5.8 8.9 13.8 21.2 21 32.5 8 12.5 17.5 27.2 21.6 33.3 2.2 3.2 3.9 6 3.9 6.2 0 .2 3.3 5.4 7.3 11.4 3.9 6.1 10.2 15.7 13.8 21.3 3.7 5.7 9.2 14.2 12.3 19 7.4 11.5 11 13.8 18.5 11.8 3.3-.8 4.7-2.1 7.4-6.3 5-7.6 25-39.9 26.3-42.2 1.7-3.3 7.8-13 8.3-13.5 2.7-2.4 7.4-12.9 7.3-16.3-.1-3-3.2-9.9-6.5-14.1-2.5-3.3-12.7-19.8-12.7-20.5 0-.5-.4-1.1-.8-1.3-.7-.2-9.1-13.1-14.5-22.2-.7-1.1-1.6-2.5-2-3-.4-.6-2.5-3.8-4.6-7.1-2.1-3.3-6.4-10-9.5-14.8-3.1-4.8-5.6-9.2-5.6-9.7 0-.4-.3-1-.8-1.2-.4-.2-7-10.2-14.7-22.3-7.7-12.1-15.8-24.8-18-28.2-14.3-22.2-20-31.4-20-32.4 0-.7.9-1.3 2-1.5 5.9-.9 10.9-1.4 19-2 5-.4 9.1-.8 9.3-.9.6-.5 39.9.3 45.7.9zm277.6 56.7c3 3.4 6.4 7.4 7.7 8.8 1.3 1.4 5.2 6.2 8.6 10.6 21.2 26.8 39.6 57.1 52.3 85.9 2.5 5.5 5.1 11.4 5.8 13.1 4.5 10.1 15.6 43.6 16.6 50 .1.5.5 2 1 3.3.5 1.2 1.1 3.3 1.3 4.5.3 1.2 1.4 6.7 2.6 12.2 2.2 10.7 4.6 24.8 5.5 33 .3 2.7.8 6.1 1 7.5 1.1 6.2 2 28.3 1.9 47.5-.1 27.6-.9 37.6-5.4 65.7-4.4 28.4-16.4 69.3-27 92.3-7.3 16-13.9 29.3-18.1 36.8-2.9 5-5.7 10.1-6.3 11.2-2 3.5-16.5 25.9-18.9 29-.4.5-2.1 2.8-3.7 5-4.6 6.1-5.9 7.8-8.4 10.8l-2.2 2.8-10.5-16.8c-5.7-9.2-10.5-17.4-10.7-18-.2-.7 2.5-5.2 6-10s6.8-9.7 7.4-10.8c.6-1.1 3.8-6.3 6.9-11.5 6.1-10 16.4-29.7 20.4-39 1.2-3 2.9-6.9 3.6-8.5 3.2-7.1 10-26.1 11.9-33 .8-2.8 2.3-8.2 3.4-12 5-17.5 10.3-47 12-67 .9-10.5.9-49.6 0-60.5-4.5-53.5-21-107.1-46.6-152-3-5.2-6-10.4-6.6-11.5-1.3-2.5-14.8-22.8-15.6-23.5-.3-.3-2.1-2.6-4-5.3-6-8.2-9.5-12.5-14.2-17.8-2.1-2.3-3.8-4.5-3.8-4.8 0-.4 3.5-6.5 7.7-13.6 4.2-7.2 8.6-14.7 9.7-16.7 1.2-2.1 2.4-3.8 2.7-3.8.4 0 3.1 2.8 6 6.1zm-622.4 21.6c1.7 2.7 5.7 9.1 9 14.3 3.2 5.2 6.7 10.7 7.6 12.1 1.7 2.6 1.7 2.7-2.2 8-2.2 3-4.5 5.9-5.1 6.6-.5.7-1 1.5-1 1.8 0 .3-1.5 2.7-3.3 5.3C174.1 317.5 157 353 147 383c-4.2 12.8-9.9 33.9-11.4 42.5-.3 1.6-.8 4.1-1.1 5.5-4.3 21.6-6 40.5-6 68.5 0 25.2 1.2 42.3 3.9 57.2.2 1 .7 3.8 1.1 6.3 1.3 8.6 6.5 30.5 9.5 41 1.8 5.8 3.6 12.1 4.2 14 5.1 17.2 21.1 51.7 33.8 72.9 6.7 11.2 20.9 32.3 22.9 34.1.3.3 2.8 3.4 5.6 7 2.7 3.6 5.9 7.5 7 8.7 4.5 4.9 4.6 5.1 3 6.7-.8.8-1.5 1.7-1.5 2 0 .5-16.8 28.7-17.7 29.6-.6.7-12.7-12.9-22.2-25-2.8-3.6-5.4-7-5.9-7.5-.4-.6-3.5-4.9-6.9-9.6-22.8-32.2-41.7-69.6-54.5-107.9-4-11.8-10.5-35.4-11.4-41.5-.3-2.2-.8-4.3-.9-4.6-.2-.3-.7-2.8-1.1-5.5-.3-2.7-.8-5.1-.9-5.4-.3-.5-1.2-6-2-11.5-.1-1.1-.5-4-.9-6.5-2.9-18.7-4-59.1-2.3-84.2.5-6.5 1-12.8 1.2-14 .2-1.3.6-5 1-8.3.4-3.2.8-6.2 1-6.5.1-.3.6-3 .9-6 2.6-21.8 14.9-65.7 25.3-90 .8-1.9 1.9-4.4 2.3-5.5 1.8-4.3 18.1-37.2 20.7-41.5 8.8-15.1 26.8-42.2 31.6-47.6.7-.8 2.1-2.5 3.2-3.9 1.1-1.3 2-2.5 2.1-2.5 0 0 1.4 2.1 3.1 4.7zm581.6 54.2c7.9 10.8 8.1 11.1 13.3 19 7.3 11.3 19.2 33.5 24.8 46.6.7 1.6 1.8 4.1 2.4 5.5 4 8.7 9.1 23.8 14.1 41.5 3.7 13.3 8 37.6 9.7 55 1.9 19.9.8 57.5-2 75.5-1.8 10.8-2.8 17-3 18.2-.2.7-.6 3.1-1.1 5.3-1.1 5.7-4.4 18.5-4.9 19.4-.3.4-.7 1.8-1 3.2-2.4 12.6-18.1 50.1-29.3 69.9-4.7 8.3-12.8 21-13.4 21-.5 0-20.3-31-24.4-38.3-1.2-2-27.3-43.8-32-51.2-1.7-2.8-4.5-7.2-6.1-9.8-1.6-2.6-4.4-7-6.1-9.7-1.8-2.7-3.3-5.2-3.3-5.6 0-.3-1-2-2.2-3.7-1.3-1.7-2.7-3.9-3.3-4.9-.5-1-3.5-5.7-6.5-10.5s-5.7-9.2-5.9-9.8c-.2-.5-.7-1.2-1-1.5-1.2-.9-9.1-14.1-9.1-15.1 0-.5-.4-.9-1-.9-.5 0-1.2-1.1-1.6-2.5-.3-1.4-.9-2.5-1.3-2.5-.3 0-1.5-1.7-2.6-3.8-1.1-2-2.2-3.9-2.5-4.2-.3-.3-2.5-3.7-4.8-7.5-2.4-3.9-6.4-10.3-8.9-14.4l-4.6-7.4 2.9-5.3c1.6-3 3.2-5.4 3.7-5.4.4 0 .7-.4.7-.9 0-.8 4.2-8.1 18.3-32.1 2.8-4.7 6.2-10.5 7.5-13 1.4-2.5 2.9-4.7 3.2-5 .4-.3.9-1 1.1-1.6.3-.8 26.3-45.4 30-51.4.5-.8 4-6.9 7.9-13.5 3.8-6.6 7.4-12.6 8-13.2.6-.7 1.4-2.1 1.8-3.1.4-1 4.4-8.1 9-15.8 4.6-7.6 8.9-14.8 9.5-15.9 3.7-6.4 6.2-10.5 6.5-10.5.1 0 3.5 4.4 7.5 9.9zm-534.8 20.8c2.7 4.3 6.3 10 8 12.8 1.8 2.7 8.5 13.5 15 24 6.4 10.4 12.7 20.6 14 22.5 1.2 1.9 7.6 12 14 22.5 6.5 10.4 13.3 21.3 15.1 24.2 1.9 2.8 3.4 5.6 3.4 6.1 0 .6.3 1.2.8 1.4.4.1 2.9 3.9 5.6 8.3 2.7 4.4 6.4 10.2 8.1 13 8.6 13.5 25.5 40.7 25.5 41.2 0 .2 1 1.9 2.3 3.6 1.2 1.8 2.7 4.1 3.4 5.2.6 1.1 2.8 4.6 4.8 7.8l3.6 5.7-6.8 11.3c-3.7 6.1-7.5 12.4-8.3 13.8-.8 1.4-4.6 7.9-8.5 14.3-3.8 6.5-7.8 13.1-8.8 14.8-16.2 27.3-30.3 50.9-31.8 53-1 1.5-1.9 3-1.9 3.3 0 .4-1.3 2.6-3 5-1.6 2.4-3 4.6-3 4.8 0 .3-3.6 6.4-8 13.7-4.4 7.3-8 13.6-8 14.1s-.4.9-1 .9c-.5 0-1 .4-1 1 0 .5-2.5 5.1-5.7 10.2-3.1 5.1-6.1 10.2-6.7 11.3-5.6 9.9-7.9 13.5-8.7 13.5-.4 0-2.8-2.6-5.1-5.7-2.4-3.2-4.5-6-4.8-6.3-.6-.5-3.6-4.9-5.5-7.9-.6-.9-3.6-5.5-6.8-10.3-3.1-4.7-5.7-9.1-5.7-9.7 0-.6-.4-1.1-.9-1.1s-1.1-.8-1.4-1.8c-.4-.9-2.9-6-5.7-11.2-11.5-21.3-24.6-55.8-28.5-75-.2-.8-1-4.4-1.8-8-2.4-10.3-4.6-25.2-6.3-43-1-10-1.1-40.1-.2-52 3.8-47.8 17.2-93 39.7-133.5 2.4-4.4 4.9-8.9 5.5-10 1.7-3.1 9.7-15.5 10-15.5.1 0 2.4 3.5 5.1 7.7zm69.2 489.6c50.5 32.3 109 52.2 168.8 57.4 11.4 1 51.5 1 62 .1 12.3-1.2 23.1-2.6 33.4-4.4l9.5-1.7 1.5 2.4c8.5 12.9 9.7 14.5 13.1 15.6 2.3.8 12.4 1.2 30.5 1.3 24.5.1 26.7.2 23.7 1.5-4.9 2.1-23 8-35.3 11.4-11 3-27.1 6.5-39.9 8.6-2.5.4-5.2.9-6 1-.8.2-4.4.6-8 1-3.6.4-7.2.9-8.1 1-12.8 2.5-78.1 2.5-87.9 0-.8-.2-4.6-.7-8.4-1-3.8-.3-7.2-.8-7.5-.9-.3-.2-3.1-.7-6.1-1-3-.4-10.9-1.8-17.5-3.2-6.6-1.4-12.8-2.7-13.7-2.9-19.5-4.1-55.6-17.1-80.7-29.1-19.1-9.1-49.1-26.6-49.1-28.7 0-.8 2.7-5.5 13.2-23.2 1-1.7 2.6-4.5 3.5-6.3.9-1.7 1.8-3.2 2-3.2.1 0 3.3 1.9 7 4.3z"/></svg>